<svg viewBox="-683 -318 1366 636" width="1366" height="636" style="background-color: rgb(255, 255, 255);" xmlns="http://www.w3.org/2000/svg"><path d="M-111.03566792267227,-0.17453224631738307L-121.83300146249746,-1.6867615036861257M-121.83300146249746,-54.71806943427981L-121.83300146249746,-1.6867615036861257M-121.83300146249746,-1.6867615036861257L-142.23330357247045,17.73405010337355M-111.03566792267227,-53.20584017691107L-111.03566792267227,-0.17453224631738307M-111.03566792267227,-0.17453224631738307L-131.43597003264523,19.246279360742292" style="fill:none;stroke:rgb(0,0,0);stroke-width:1;stroke-linecap:round"></path><path d="M-111.03566792267227,-0.17453224631738237L-121.83300146249746,-1.686761503686125L-121.83300146249746,-54.71806943427981zM-111.03566792267227,-53.20584017691107L-111.03566792267227,-0.17453224631738237L-121.83300146249746,-54.71806943427981zM-142.23330357247042,17.73405010337355L-121.83300146249746,-1.686761503686125L-111.03566792267227,-0.17453224631738237z" style="fill:rgb(238,238,238); fill-opacity: 0.4"></path><path d="M-49.16714860876281,4.500297689389922L-94.02627657479427,-1.7824836584371313M-94.02627657479427,-41.05226118753719L-94.02627657479427,-1.7824836584371313M-94.02627657479427,-1.7824836584371313L-109.13273645003537,12.598661763092723M-111.03566792267227,-53.20584017691107L-121.83300146249746,-54.71806943427981M-121.83300146249746,-54.71806943427981L-142.23330357247045,-35.297257827220136M-118.0415965251984,-7.021128269142375L-128.8389300650236,-8.533357526511118M-128.8389300650236,-19.312783955573025L-128.8389300650236,-8.533357526511118M-128.8389300650236,-8.533357526511118L-132.98560425252234,-4.585779801576291M-111.03566792267227,-53.20584017691107L-131.43597003264523,-33.7850285698514" style="fill:none;stroke:rgb(0,0,0);stroke-width:1;stroke-linecap:round"></path><path d="M-118.0415965251984,-7.021128269142374L-128.8389300650236,-8.533357526511116L-128.8389300650236,-19.312783955573025z" style="fill:rgb(153,221,255); fill-opacity: 0.4"></path><path d="M-118.0415965251984,-17.80055469820428L-118.0415965251984,-7.021128269142375M-118.0415965251984,-7.021128269142375L-122.18827071269713,-3.0735505442075484M-118.04159605704727,-17.800554523301894L-118.04159605704727,-7.021128094239987M-118.04159605704727,-7.021128094239987L-122.1882700647925,-3.073550540428047M-118.04159605704727,-7.021128094239987L-100.74948809627368,-9.381898556163753M-118.0415965251984,-17.80055469820428L-128.8389300650236,-19.312783955573025M-128.8389300650236,-19.312783955573025L-132.98560425252234,-15.365206230638197" style="fill:none;stroke:rgb(0,0,0);stroke-width:1;stroke-linecap:round"></path><path d="M-132.9856042525223,-4.58577980157629L-128.8389300650236,-8.533357526511116L-118.0415965251984,-7.021128269142374z" style="fill:rgb(153,221,255); fill-opacity: 0.4"></path><path d="M-131.43597003264523,19.246279360742292L-111.03566792267227,-0.17453224631738237L-111.03566792267227,-53.20584017691107z" style="fill:rgb(238,238,238); fill-opacity: 0.4"></path><path d="M-118.0415965251984,-17.80055469820428L-118.0415965251984,-7.021128269142374L-128.8389300650236,-19.312783955573025zM-128.8389300650236,-19.312783955573025L-128.8389300650236,-8.533357526511116L-132.9856042525223,-15.365206230638197z" style="fill:rgb(153,221,255); fill-opacity: 0.4"></path><path d="M-121.83300146249746,-54.71806943427981L-121.83300146249746,-1.686761503686125L-142.23330357247042,-35.297257827220136z" style="fill:rgb(238,238,238); fill-opacity: 0.4"></path><path d="M-118.0415965251984,-17.80055469820428L-122.18827071269713,-13.852976973269454M-118.04159605704727,-17.800554523301894L-122.1882700647925,-13.852976969489951M-118.04159605704727,-17.800554523301894L-100.74948809627368,-9.381898556163753" style="fill:none;stroke:rgb(0,0,0);stroke-width:1;stroke-linecap:round"></path><path d="M-128.8389300650236,-8.533357526511116L-132.9856042525223,-4.58577980157629L-132.9856042525223,-15.365206230638197z" style="fill:rgb(153,221,255); fill-opacity: 0.4"></path><path d="M-49.16714860876281,4.500297689389924L-94.02627657479428,-1.7824836584371309L-94.02627657479428,-41.052261187537184z" style="fill:rgb(238,238,238); fill-opacity: 0.4"></path><path d="M-118.04159662266466,-17.800554711854996L-118.04159662266466,-7.0211282827930885L-122.18827081016337,-3.073550557858262z" style="fill:rgb(255,187,187); fill-opacity: 0.4"></path><path d="M-122.18827071269712,-3.073550544207548L-118.0415965251984,-7.021128269142374L-118.0415965251984,-17.80055469820428zM-122.18827071269712,-3.073550544207548L-132.9856042525223,-4.58577980157629L-118.0415965251984,-7.021128269142374z" style="fill:rgb(153,221,255); fill-opacity: 0.4"></path><path d="M-132.98560425252234,-15.365206230638197L-132.98560425252234,-4.585779801576291M-132.98560425252234,-4.585779801576291L-122.18827071269713,-3.0735505442075484" style="fill:none;stroke:rgb(0,0,0);stroke-width:1;stroke-linecap:round"></path><path d="M-122.18827071269712,-13.852976973269454L-118.0415965251984,-17.80055469820428L-128.8389300650236,-19.312783955573025z" style="fill:rgb(153,221,255); fill-opacity: 0.4"></path><path d="M-118.04159662266466,-7.0211282827930885L-118.04159662266466,-17.800554711854996L-100.74948883711404,-9.381898541596726z" style="fill:rgb(255,187,187); fill-opacity: 0.4"></path><path d="M-132.9856042525223,-15.365206230638197L-122.18827071269712,-13.852976973269454L-128.8389300650236,-19.312783955573025z" style="fill:rgb(153,221,255); fill-opacity: 0.4"></path><path d="M-122.18827081016337,-3.073550557858262L-118.04159662266466,-7.0211282827930885L-100.74948883711404,-9.381898541596726z" style="fill:rgb(255,187,187); fill-opacity: 0.4"></path><path d="M-49.16714860876281,-34.76947983971013L-94.02627657479427,-41.05226118753719M-94.02627657479427,-41.05226118753719L-109.13273645003537,-26.67111576600733" style="fill:none;stroke:rgb(0,0,0);stroke-width:1;stroke-linecap:round"></path><path d="M-131.43597003264523,19.246279360742292L-142.23330357247042,17.73405010337355L-111.03566792267227,-0.17453224631738237z" style="fill:rgb(238,238,238); fill-opacity: 0.4"></path><path d="M-118.04159662266466,-17.800554711854996L-122.18827081016337,-3.073550557858262L-122.18827081016337,-13.852976986920169z" style="fill:rgb(255,187,187); fill-opacity: 0.4"></path><path d="M-122.18827071269712,-13.852976973269454L-122.18827071269712,-3.073550544207548L-118.0415965251984,-17.80055469820428z" style="fill:rgb(153,221,255); fill-opacity: 0.4"></path><path d="M-49.16714860876281,-34.76947983971013L-49.16714860876281,4.500297689389922M-49.16714860876281,4.500297689389922L-64.27360848400392,18.88144311091978M-122.18827071269713,-13.852976973269454L-122.18827071269713,-3.0735505442075484M-122.1882700647925,-3.073550540428047L-122.1882700647925,-13.852976969489951M-122.1882700647925,-3.073550540428047L-100.74948809627368,-9.381898556163753" style="fill:none;stroke:rgb(0,0,0);stroke-width:1;stroke-linecap:round"></path><path d="M-132.9856042525223,-4.58577980157629L-122.18827071269712,-3.073550544207548L-122.18827071269712,-13.852976973269454zM-132.9856042525223,-15.365206230638197L-132.9856042525223,-4.58577980157629L-122.18827071269712,-13.852976973269454z" style="fill:rgb(153,221,255); fill-opacity: 0.4"></path><path d="M-132.98560425252234,-15.365206230638197L-122.18827071269713,-13.852976973269454" style="fill:none;stroke:rgb(0,0,0);stroke-width:1;stroke-linecap:round"></path><path d="M-118.04159662266466,-17.800554711854996L-122.18827081016337,-13.852976986920169L-100.74948883711404,-9.381898541596726z" style="fill:rgb(255,187,187); fill-opacity: 0.4"></path><path d="M-109.13273645003538,12.598661763092725L-94.02627657479428,-1.7824836584371309L-49.16714860876281,4.500297689389924z" style="fill:rgb(238,238,238); fill-opacity: 0.4"></path><path d="M-122.18827081016337,-13.852976986920169L-122.18827081016337,-3.073550557858262L-100.74948883711404,-9.381898541596726z" style="fill:rgb(255,187,187); fill-opacity: 0.4"></path><path d="M-131.43597003264523,-33.7850285698514L-111.03566792267227,-53.20584017691107L-121.83300146249746,-54.71806943427981zM-121.83300146249746,-1.686761503686125L-142.23330357247042,17.73405010337355L-142.23330357247042,-35.297257827220136z" style="fill:rgb(238,238,238); fill-opacity: 0.4"></path><path d="M-122.1882700647925,-13.852976969489951L-100.74948809627368,-9.381898556163753" style="fill:none;stroke:rgb(0,0,0);stroke-width:1;stroke-linecap:round"></path><path d="M-49.16714860876281,-34.76947983971013L-49.16714860876281,4.500297689389924L-94.02627657479428,-41.052261187537184zM-94.02627657479428,-41.052261187537184L-94.02627657479428,-1.7824836584371309L-109.13273645003538,-26.67111576600733z" style="fill:rgb(238,238,238); fill-opacity: 0.4"></path><path d="M23.646969705498556,12.676691079396884L-30.851901376431485,5.043807734663586M-30.851901376431485,-27.253676527781963L-30.851901376431485,5.043807734663586M-30.851901376431485,5.043807734663586L-43.2762307406688,16.871601197043457M-142.23330357247045,-35.297257827220136L-142.23330357247045,17.73405010337355M-142.23330357247045,17.73405010337355L-131.43597003264523,19.246279360742292" style="fill:none;stroke:rgb(0,0,0);stroke-width:1;stroke-linecap:round"></path><path d="M-94.02627657479428,-1.7824836584371309L-109.13273645003538,12.598661763092725L-109.13273645003538,-26.67111576600733zM-131.43597003264523,-33.7850285698514L-131.43597003264523,19.246279360742292L-111.03566792267227,-53.20584017691107z" style="fill:rgb(238,238,238); fill-opacity: 0.4"></path><path d="M-61.03821060276133,9.543357560280526L-105.89733856879279,3.260576212453473M-105.89733856879279,-1.6391630734837563L-105.89733856879279,3.260576212453473M-105.89733856879279,3.260576212453473L-107.78219047220131,5.0549297237874855M-49.16714860876281,-34.76947983971013L-64.27360848400392,-20.388334418180275M-61.03821060276133,4.643618274343297L-105.89733856879279,-1.6391630734837563M-105.89733856879279,-1.6391630734837563L-107.78219047220131,0.1551904378502555M-131.43597003264523,-33.7850285698514L-131.43597003264523,19.246279360742292" style="fill:none;stroke:rgb(0,0,0);stroke-width:1;stroke-linecap:round"></path><path d="M-64.27360848400392,18.88144311091978L-49.16714860876281,4.500297689389924L-49.16714860876281,-34.76947983971013z" style="fill:rgb(238,238,238); fill-opacity: 0.4"></path><path d="M-105.8973385687928,-1.6391630734837586L-105.8973385687928,3.2605762124534725L-107.78219047220132,0.15519043785025505zM-105.8973385687928,3.2605762124534725L-107.78219047220132,5.054929723787485L-107.78219047220132,0.15519043785025505z" style="fill:rgb(153,221,255); fill-opacity: 0.4"></path><path d="M-142.23330357247042,-35.297257827220136L-131.43597003264523,-33.7850285698514L-121.83300146249746,-54.71806943427981zM-64.27360848400392,18.88144311091978L-109.13273645003538,12.598661763092725L-49.16714860876281,4.500297689389924z" style="fill:rgb(238,238,238); fill-opacity: 0.4"></path><path d="M-107.78219047220131,0.1551904378502555L-107.78219047220131,5.0549297237874855M-107.78219047220131,5.0549297237874855L-62.923062506169856,11.337711071614539M-109.13273645003537,-26.67111576600733L-109.13273645003537,12.598661763092723M-109.13273645003537,12.598661763092723L-64.27360848400392,18.88144311091978" style="fill:none;stroke:rgb(0,0,0);stroke-width:1;stroke-linecap:round"></path><path d="M-61.03821060276133,9.543357560280526L-105.8973385687928,3.2605762124534725L-105.8973385687928,-1.6391630734837586z" style="fill:rgb(153,221,255); fill-opacity: 0.4"></path><path d="M-107.78219047220131,0.1551904378502555L-62.923062506169856,6.437971785677309" style="fill:none;stroke:rgb(0,0,0);stroke-width:1;stroke-linecap:round"></path><path d="M-107.78219047220132,5.054929723787485L-105.8973385687928,3.2605762124534725L-61.03821060276133,9.543357560280526z" style="fill:rgb(153,221,255); fill-opacity: 0.4"></path><path d="M-64.27360848400392,-20.388334418180275L-49.16714860876281,-34.76947983971013L-94.02627657479428,-41.052261187537184zM23.646969705498563,12.676691079396884L-30.85190137643149,5.043807734663586L-30.85190137643149,-27.253676527781966zM-142.23330357247042,17.73405010337355L-131.43597003264523,19.246279360742292L-131.43597003264523,-33.7850285698514z" style="fill:rgb(238,238,238); fill-opacity: 0.4"></path><path d="M23.646969705498556,-19.620793183048665L-30.851901376431485,-27.253676527781963M-30.851901376431485,-27.253676527781963L-43.2762307406688,-15.425883065402093" style="fill:none;stroke:rgb(0,0,0);stroke-width:1;stroke-linecap:round"></path><path d="M-107.78219047220132,0.15519043785025505L-62.923062506169856,6.437971785677309L-105.8973385687928,-1.6391630734837586zM-107.78219047220132,0.15519043785025505L-107.78219047220132,5.054929723787485L-62.923062506169856,6.437971785677309zM-61.03821060276133,4.643618274343296L-61.03821060276133,9.543357560280526L-105.8973385687928,-1.6391630734837586z" style="fill:rgb(153,221,255); fill-opacity: 0.4"></path><path d="M-43.276230740668815,16.871601197043454L-30.85190137643149,5.043807734663586L23.646969705498563,12.676691079396884zM-142.23330357247042,-35.297257827220136L-142.23330357247042,17.73405010337355L-131.43597003264523,-33.7850285698514z" style="fill:rgb(238,238,238); fill-opacity: 0.4"></path><path d="M-62.923062506169856,11.337711071614535L-107.78219047220132,5.054929723787485L-61.03821060276133,9.543357560280526z" style="fill:rgb(153,221,255); fill-opacity: 0.4"></path><path d="M-109.13273645003538,-26.67111576600733L-64.27360848400392,-20.388334418180275L-94.02627657479428,-41.052261187537184z" style="fill:rgb(238,238,238); fill-opacity: 0.4"></path><path d="M-62.923062506169856,6.437971785677309L-61.03821060276133,4.643618274343296L-105.8973385687928,-1.6391630734837586z" style="fill:rgb(153,221,255); fill-opacity: 0.4"></path><path d="M-30.85190137643149,-27.253676527781966L-30.85190137643149,5.043807734663586L-43.276230740668815,-15.425883065402095z" style="fill:rgb(238,238,238); fill-opacity: 0.4"></path><path d="M23.646969705498556,-19.620793183048665L23.646969705498556,12.676691079396884M23.646969705498556,12.676691079396884L11.22264034126124,24.50448454177676" style="fill:none;stroke:rgb(0,0,0);stroke-width:1;stroke-linecap:round"></path><path d="M-107.78219047220132,5.054929723787485L-62.923062506169856,11.337711071614535L-62.923062506169856,6.437971785677309z" style="fill:rgb(153,221,255); fill-opacity: 0.4"></path><path d="M16.195105581269612,15.969459712572107L-38.30376550066043,8.336576367838807M-38.30376550066043,5.396732796276469L-38.30376550066043,8.336576367838807M-38.30376550066043,8.336576367838807L-39.43467664270554,9.413188474639215M-61.03821060276133,4.643618274343297L-61.03821060276133,9.543357560280526M-61.03821060276133,9.543357560280526L-62.923062506169856,11.337711071614539M-61.03820990985513,4.6436182792579155L-61.03820990985513,9.543357565195148M-61.03820990985513,9.543357565195148L-62.92306145375667,11.337710734283386M-61.03820990985513,9.543357565195148L-41.39037150117982,7.914464987443263M16.195105581269612,13.029616141009768L-38.30376550066043,5.396732796276469M-38.30376550066043,5.396732796276469L-39.43467664270554,6.473344903076877" style="fill:none;stroke:rgb(0,0,0);stroke-width:1;stroke-linecap:round"></path><path d="M-38.30376550066043,5.396732796276469L-38.30376550066043,8.336576367838806L-39.43467664270555,6.4733449030768755z" style="fill:rgb(153,221,255); fill-opacity: 0.4"></path><path d="M23.646969705498563,-19.620793183048665L23.646969705498563,12.676691079396884L-30.85190137643149,-27.253676527781966z" style="fill:rgb(238,238,238); fill-opacity: 0.4"></path><path d="M-61.03821060276133,4.643618274343297L-62.923062506169856,6.437971785677309M-61.03820990985513,4.6436182792579155L-62.92306145375667,6.437971448346158M-61.03820990985513,4.6436182792579155L-41.39037150117982,7.914464987443263" style="fill:none;stroke:rgb(0,0,0);stroke-width:1;stroke-linecap:round"></path><path d="M-61.038210747025694,4.643618254138236L-61.038210747025694,9.543357540075467L-62.92306265043421,11.337711051409476z" style="fill:rgb(255,187,187); fill-opacity: 0.4"></path><path d="M-62.923062506169856,11.337711071614535L-61.03821060276133,9.543357560280526L-61.03821060276133,4.643618274343296zM-38.30376550066043,8.336576367838806L-39.43467664270555,9.413188474639215L-39.43467664270555,6.4733449030768755z" style="fill:rgb(153,221,255); fill-opacity: 0.4"></path><path d="M-39.43467664270554,6.473344903076877L-39.43467664270554,9.413188474639215M-39.43467664270554,9.413188474639215L15.064194439224503,17.046071819372514M-142.23330357247045,-35.297257827220136L-131.43597003264523,-33.7850285698514" style="fill:none;stroke:rgb(0,0,0);stroke-width:1;stroke-linecap:round"></path><path d="M-64.27360848400392,-20.388334418180275L-64.27360848400392,18.88144311091978L-49.16714860876281,-34.76947983971013z" style="fill:rgb(238,238,238); fill-opacity: 0.4"></path><path d="M-61.038210747025694,9.543357540075467L-61.038210747025694,4.643618254138236L-41.39037264856962,7.914465026104464z" style="fill:rgb(255,187,187); fill-opacity: 0.4"></path><path d="M-39.43467664270554,6.473344903076877L15.064194439224503,14.106228247810174" style="fill:none;stroke:rgb(0,0,0);stroke-width:1;stroke-linecap:round"></path><path d="M-61.038210747025694,4.643618254138236L-62.92306265043421,11.337711051409476L-62.92306265043421,6.437971765472249z" style="fill:rgb(255,187,187); fill-opacity: 0.4"></path><path d="M-62.923062506169856,6.437971785677309L-62.923062506169856,11.337711071614535L-61.03821060276133,4.643618274343296z" style="fill:rgb(153,221,255); fill-opacity: 0.4"></path><path d="M-62.92306265043421,11.337711051409476L-61.038210747025694,9.543357540075467L-41.39037264856962,7.914465026104464z" style="fill:rgb(255,187,187); fill-opacity: 0.4"></path><path d="M-62.92306145375667,11.337710734283386L-62.92306145375667,6.437971448346158M-62.92306145375667,11.337710734283386L-41.39037150117982,7.914464987443263M-62.923062506169856,6.437971785677309L-62.923062506169856,11.337711071614539" style="fill:none;stroke:rgb(0,0,0);stroke-width:1;stroke-linecap:round"></path><path d="M-30.85190137643149,5.043807734663586L-43.276230740668815,16.871601197043454L-43.276230740668815,-15.425883065402095z" style="fill:rgb(238,238,238); fill-opacity: 0.4"></path><path d="M-109.13273645003537,-26.67111576600733L-64.27360848400392,-20.388334418180275" style="fill:none;stroke:rgb(0,0,0);stroke-width:1;stroke-linecap:round"></path><path d="M-109.13273645003538,-26.67111576600733L-109.13273645003538,12.598661763092725L-64.27360848400392,-20.388334418180275zM-109.13273645003538,12.598661763092725L-64.27360848400392,18.88144311091978L-64.27360848400392,-20.388334418180275z" style="fill:rgb(238,238,238); fill-opacity: 0.4"></path><path d="M-64.27360848400392,-20.388334418180275L-64.27360848400392,18.88144311091978" style="fill:none;stroke:rgb(0,0,0);stroke-width:1;stroke-linecap:round"></path><path d="M-61.038210747025694,4.643618254138236L-62.92306265043421,6.437971765472249L-41.39037264856962,7.914465026104464z" style="fill:rgb(255,187,187); fill-opacity: 0.4"></path><path d="M-62.92306145375667,6.437971448346158L-41.39037150117982,7.914464987443263" style="fill:none;stroke:rgb(0,0,0);stroke-width:1;stroke-linecap:round"></path><path d="M-62.92306265043421,6.437971765472249L-62.92306265043421,11.337711051409476L-41.39037264856962,7.914465026104464z" style="fill:rgb(255,187,187); fill-opacity: 0.4"></path><path d="M16.195105581269612,15.969459712572103L-38.30376550066043,8.336576367838806L-38.30376550066043,5.396732796276469zM-39.43467664270555,9.413188474639215L-38.30376550066043,8.336576367838806L16.195105581269612,15.969459712572103zM-39.43467664270555,6.4733449030768755L15.064194439224503,14.106228247810174L-38.30376550066043,5.396732796276469zM-39.43467664270555,6.4733449030768755L-39.43467664270555,9.413188474639215L15.064194439224503,14.106228247810174z" style="fill:rgb(153,221,255); fill-opacity: 0.4"></path><path d="M-43.2762307406688,-15.425883065402093L-43.2762307406688,16.871601197043457M-43.2762307406688,16.871601197043457L11.22264034126124,24.50448454177676M100.4095120827162,21.350985860989685L41.92566822077429,13.159983939524007M41.92566822077429,-11.975182911429043L41.92566822077429,13.159983939524007M41.92566822077429,13.159983939524007L32.25656863878554,22.3648359255102M23.646969705498556,-19.620793183048665L11.22264034126124,-7.792999720668795" style="fill:none;stroke:rgb(0,0,0);stroke-width:1;stroke-linecap:round"></path><path d="M11.222640341261236,24.50448454177675L-43.276230740668815,16.871601197043454L23.646969705498563,12.676691079396884z" style="fill:rgb(238,238,238); fill-opacity: 0.4"></path><path d="M16.195105581269612,13.029616141009768L16.195105581269612,15.969459712572103L-38.30376550066043,5.396732796276469z" style="fill:rgb(153,221,255); fill-opacity: 0.4"></path><path d="M11.222640341261236,24.50448454177675L23.646969705498563,12.676691079396884L23.646969705498563,-19.620793183048665z" style="fill:rgb(238,238,238); fill-opacity: 0.4"></path><path d="M15.064194439224503,17.046071819372514L-39.43467664270555,9.413188474639215L16.195105581269612,15.969459712572103zM15.064194439224503,14.106228247810174L16.195105581269612,13.029616141009768L-38.30376550066043,5.396732796276469zM-39.43467664270555,9.413188474639215L15.064194439224503,17.046071819372514L15.064194439224503,14.106228247810174z" style="fill:rgb(153,221,255); fill-opacity: 0.4"></path><path d="M11.222640341261236,-7.792999720668794L23.646969705498563,-19.620793183048665L-30.85190137643149,-27.253676527781966z" style="fill:rgb(238,238,238); fill-opacity: 0.4"></path><path d="M16.195104745776383,13.029615957309575L16.195104745776383,15.969459528871914M16.195104745776383,15.969459528871914L15.064193693608015,17.046071550110877M16.195104745776383,15.969459528871914L35.68627647516715,14.997526197365964M16.195105581269612,13.029616141009768L16.195105581269612,15.969459712572107M16.195105581269612,15.969459712572107L15.064194439224503,17.046071819372514" style="fill:none;stroke:rgb(0,0,0);stroke-width:1;stroke-linecap:round"></path><path d="M-43.276230740668815,-15.425883065402095L11.222640341261236,-7.792999720668794L-30.85190137643149,-27.253676527781966z" style="fill:rgb(238,238,238); fill-opacity: 0.4"></path><path d="M16.195104745776383,13.029615957309575L15.064193693608015,14.10622797854854M16.195104745776383,13.029615957309575L35.68627647516715,14.997526197365964M16.195105581269612,13.029616141009768L15.064194439224503,14.106228247810174" style="fill:none;stroke:rgb(0,0,0);stroke-width:1;stroke-linecap:round"></path><path d="M16.195105506392654,13.029616130522813L16.195105506392654,15.96945970208515L15.064194364347543,17.046071808885557z" style="fill:rgb(255,187,187); fill-opacity: 0.4"></path><path d="M15.064194439224503,17.046071819372514L16.195105581269612,15.969459712572103L16.195105581269612,13.029616141009768z" style="fill:rgb(153,221,255); fill-opacity: 0.4"></path><path d="M100.4095120827162,-3.7841809899633656L41.92566822077429,-11.975182911429043M41.92566822077429,-11.975182911429043L32.25656863878554,-2.7703309254428516" style="fill:none;stroke:rgb(0,0,0);stroke-width:1;stroke-linecap:round"></path><path d="M100.4095120827162,21.350985860989685L41.925668220774284,13.159983939524007L41.925668220774284,-11.975182911429044z" style="fill:rgb(238,238,238); fill-opacity: 0.4"></path><path d="M16.195105506392654,13.029616130522813L15.064194364347543,17.046071808885557L15.064194364347543,14.10622823732322z" style="fill:rgb(255,187,187); fill-opacity: 0.4"></path><path d="M15.064194439224503,14.106228247810174L15.064194439224503,17.046071819372514L16.195105581269612,13.029616141009768z" style="fill:rgb(153,221,255); fill-opacity: 0.4"></path><path d="M15.064193693608015,17.046071550110877L15.064193693608015,14.10622797854854M15.064193693608015,17.046071550110877L35.68627647516715,14.997526197365964M15.064194439224503,14.106228247810174L15.064194439224503,17.046071819372514" style="fill:none;stroke:rgb(0,0,0);stroke-width:1;stroke-linecap:round"></path><path d="M16.195105506392654,15.96945970208515L16.195105506392654,13.029616130522813L35.686275310635686,14.997525701325207z" style="fill:rgb(255,187,187); fill-opacity: 0.4"></path><path d="M-43.2762307406688,-15.425883065402093L11.22264034126124,-7.792999720668795" style="fill:none;stroke:rgb(0,0,0);stroke-width:1;stroke-linecap:round"></path><path d="M15.064194364347543,17.046071808885557L16.195105506392654,15.96945970208515L35.686275310635686,14.997525701325207z" style="fill:rgb(255,187,187); fill-opacity: 0.4"></path><path d="M15.064193693608015,14.10622797854854L35.68627647516715,14.997526197365964" style="fill:none;stroke:rgb(0,0,0);stroke-width:1;stroke-linecap:round"></path><path d="M16.195105506392654,13.029616130522813L15.064194364347543,14.10622823732322L35.686275310635686,14.997525701325207zM15.064194364347543,14.10622823732322L15.064194364347543,17.046071808885557L35.686275310635686,14.997525701325207z" style="fill:rgb(255,187,187); fill-opacity: 0.4"></path><path d="M-43.276230740668815,-15.425883065402095L-43.276230740668815,16.871601197043454L11.222640341261236,-7.792999720668794zM41.925668220774284,-11.975182911429044L41.925668220774284,13.159983939524007L32.25656863878554,-2.770330925442851zM32.25656863878554,22.3648359255102L41.925668220774284,13.159983939524007L100.4095120827162,21.350985860989685zM-43.276230740668815,16.871601197043454L11.222640341261236,24.50448454177675L11.222640341261236,-7.792999720668794zM11.222640341261236,-7.792999720668794L11.222640341261236,24.50448454177675L23.646969705498563,-19.620793183048665z" style="fill:rgb(238,238,238); fill-opacity: 0.4"></path><path d="M93.79033512101833,24.65413698776222L35.3064912590764,16.463135066296545M35.3064912590764,13.523291494734206L35.3064912590764,16.463135066296545M35.3064912590764,16.463135066296545L34.175580117031295,17.539747173096952M11.22264034126124,-7.792999720668795L11.22264034126124,24.50448454177676M93.79033512101833,21.714293416199883L35.3064912590764,13.523291494734206M35.3064912590764,13.523291494734206L34.175580117031295,14.599903601534612" style="fill:none;stroke:rgb(0,0,0);stroke-width:1;stroke-linecap:round"></path><path d="M35.306491259076395,13.523291494734206L35.306491259076395,16.463135066296545L34.17558011703128,14.599903601534612z" style="fill:rgb(153,221,255); fill-opacity: 0.4"></path><path d="M41.925668220774284,13.159983939524007L32.25656863878554,22.3648359255102L32.25656863878554,-2.770330925442851z" style="fill:rgb(238,238,238); fill-opacity: 0.4"></path><path d="M35.306491259076395,16.463135066296545L34.17558011703128,17.53974717309695L34.17558011703128,14.599903601534612z" style="fill:rgb(153,221,255); fill-opacity: 0.4"></path><path d="M34.175580117031295,14.599903601534612L34.175580117031295,17.539747173096952M34.175580117031295,17.539747173096952L92.65942397897321,25.73074909456263" style="fill:none;stroke:rgb(0,0,0);stroke-width:1;stroke-linecap:round"></path><path d="M100.4095120827162,-3.784180989963365L100.4095120827162,21.350985860989685L41.925668220774284,-11.975182911429044z" style="fill:rgb(238,238,238); fill-opacity: 0.4"></path><path d="M100.4095120827162,-3.7841809899633656L100.4095120827162,21.350985860989685M100.4095120827162,21.350985860989685L90.74041250072744,30.555837846975876M34.175580117031295,14.599903601534612L92.65942397897321,22.79090552300029M32.25656863878554,-2.7703309254428516L32.25656863878554,22.3648359255102M32.25656863878554,22.3648359255102L90.74041250072744,30.555837846975876" style="fill:none;stroke:rgb(0,0,0);stroke-width:1;stroke-linecap:round"></path><path d="M93.7903351210183,24.65413698776222L35.306491259076395,16.463135066296545L35.306491259076395,13.523291494734206zM34.17558011703128,17.53974717309695L35.306491259076395,16.463135066296545L93.7903351210183,24.65413698776222zM34.17558011703128,14.599903601534612L92.65942397897321,22.79090552300029L35.306491259076395,13.523291494734206zM34.17558011703128,14.599903601534612L34.17558011703128,17.53974717309695L92.65942397897321,22.79090552300029z" style="fill:rgb(153,221,255); fill-opacity: 0.4"></path><path d="M178.54967020023753,32.2949687290644L120.06582633829562,24.103966807598727M120.06582633829562,-1.0312000433543267L120.06582633829562,24.103966807598727M120.06582633829562,24.103966807598727L110.39672675630686,33.30881879358492" style="fill:none;stroke:rgb(0,0,0);stroke-width:1;stroke-linecap:round"></path><path d="M90.74041250072744,30.55583784697588L32.25656863878554,22.3648359255102L100.4095120827162,21.350985860989685z" style="fill:rgb(238,238,238); fill-opacity: 0.4"></path><path d="M100.4095120827162,-3.7841809899633656L90.74041250072744,5.420670996022826" style="fill:none;stroke:rgb(0,0,0);stroke-width:1;stroke-linecap:round"></path><path d="M90.74041250072744,5.420670996022827L100.4095120827162,-3.784180989963365L41.925668220774284,-11.975182911429044z" style="fill:rgb(238,238,238); fill-opacity: 0.4"></path><path d="M93.7903351210183,21.714293416199883L93.7903351210183,24.65413698776222L35.306491259076395,13.523291494734206z" style="fill:rgb(153,221,255); fill-opacity: 0.4"></path><path d="M90.74041250072744,30.55583784697588L100.4095120827162,21.350985860989685L100.4095120827162,-3.784180989963365zM32.25656863878554,-2.770330925442851L90.74041250072744,5.420670996022827L41.925668220774284,-11.975182911429044z" style="fill:rgb(238,238,238); fill-opacity: 0.4"></path><path d="M92.65942397897321,25.730749094562626L34.17558011703128,17.53974717309695L93.7903351210183,24.65413698776222zM92.65942397897321,22.79090552300029L93.7903351210183,21.714293416199883L35.306491259076395,13.523291494734206z" style="fill:rgb(153,221,255); fill-opacity: 0.4"></path><path d="M32.25656863878554,-2.7703309254428516L90.74041250072744,5.420670996022826" style="fill:none;stroke:rgb(0,0,0);stroke-width:1;stroke-linecap:round"></path><path d="M34.17558011703128,17.53974717309695L92.65942397897321,25.730749094562626L92.65942397897321,22.79090552300029z" style="fill:rgb(153,221,255); fill-opacity: 0.4"></path><path d="M32.25656863878554,-2.770330925442851L32.25656863878554,22.3648359255102L90.74041250072744,5.420670996022827z" style="fill:rgb(238,238,238); fill-opacity: 0.4"></path><path d="M178.54967020023753,7.159801878111351L120.06582633829562,-1.0312000433543267M120.06582633829562,-1.0312000433543267L110.39672675630686,8.173651942631864M93.79033512101833,21.714293416199883L93.79033512101833,24.65413698776222M93.79033512101833,24.65413698776222L92.65942397897321,25.73074909456263M93.79033930525603,21.714294092943824L93.79033930525603,24.65413766450616M93.79033930525603,24.65413766450616L92.6594281632109,25.730749771306563M93.79033930525603,24.65413766450616L112.88119644120802,26.475502661843134" style="fill:none;stroke:rgb(0,0,0);stroke-width:1;stroke-linecap:round"></path><path d="M178.54967020023756,32.2949687290644L120.06582633829562,24.103966807598727L120.06582633829562,-1.031200043354326z" style="fill:rgb(238,238,238); fill-opacity: 0.4"></path><path d="M93.79033512101833,21.714293416199883L92.65942397897321,22.79090552300029M93.79033930525603,21.714294092943824L92.6594281632109,22.790906199744228M93.79033930525603,21.714294092943824L112.88119644120802,26.475502661843134" style="fill:none;stroke:rgb(0,0,0);stroke-width:1;stroke-linecap:round"></path><path d="M92.65942397897321,25.730749094562626L93.7903351210183,24.65413698776222L93.7903351210183,21.714293416199883z" style="fill:rgb(153,221,255); fill-opacity: 0.4"></path><path d="M93.79033589532072,21.714293524645434L93.79033589532072,24.65413709620777L92.65942475327563,25.730749203008177z" style="fill:rgb(255,187,187); fill-opacity: 0.4"></path><path d="M32.25656863878554,22.3648359255102L90.74041250072744,30.55583784697588L90.74041250072744,5.420670996022827z" style="fill:rgb(238,238,238); fill-opacity: 0.4"></path><path d="M92.65942397897321,22.79090552300029L92.65942397897321,25.730749094562626L93.7903351210183,21.714293416199883z" style="fill:rgb(153,221,255); fill-opacity: 0.4"></path><path d="M93.79033589532072,21.714293524645434L92.65942475327563,25.730749203008177L92.65942475327563,22.790905631445842z" style="fill:rgb(255,187,187); fill-opacity: 0.4"></path><path d="M92.65942397897321,22.79090552300029L92.65942397897321,25.73074909456263M92.6594281632109,25.730749771306563L92.6594281632109,22.790906199744228M92.6594281632109,25.730749771306563L112.88119644120802,26.475502661843134" style="fill:none;stroke:rgb(0,0,0);stroke-width:1;stroke-linecap:round"></path><path d="M93.79033589532072,24.65413709620777L93.79033589532072,21.714293524645434L112.88119303127273,26.475502093544744z" style="fill:rgb(255,187,187); fill-opacity: 0.4"></path><path d="M92.6594281632109,22.790906199744228L112.88119644120802,26.475502661843134" style="fill:none;stroke:rgb(0,0,0);stroke-width:1;stroke-linecap:round"></path><path d="M92.65942475327563,25.730749203008177L93.79033589532072,24.65413709620777L112.88119303127273,26.475502093544744z" style="fill:rgb(255,187,187); fill-opacity: 0.4"></path><path d="M120.06582633829562,-1.031200043354326L120.06582633829562,24.103966807598727L110.39672675630686,8.173651942631865zM110.39672675630686,33.30881879358492L120.06582633829562,24.103966807598727L178.54967020023756,32.2949687290644z" style="fill:rgb(238,238,238); fill-opacity: 0.4"></path><path d="M93.79033589532072,21.714293524645434L92.65942475327563,22.790905631445842L112.88119303127273,26.475502093544744z" style="fill:rgb(255,187,187); fill-opacity: 0.4"></path><path d="M90.74041250072744,5.420670996022827L90.74041250072744,30.55583784697588L100.4095120827162,-3.784180989963365z" style="fill:rgb(238,238,238); fill-opacity: 0.4"></path><path d="M92.65942475327563,22.790905631445842L92.65942475327563,25.730749203008177L112.88119303127273,26.475502093544744z" style="fill:rgb(255,187,187); fill-opacity: 0.4"></path><path d="M90.74041250072744,5.420670996022826L90.74041250072744,30.555837846975876" style="fill:none;stroke:rgb(0,0,0);stroke-width:1;stroke-linecap:round"></path><path d="M120.06582633829562,24.103966807598727L110.39672675630686,33.30881879358492L110.39672675630686,8.173651942631865zM178.54967020023756,7.1598018781113515L178.54967020023756,32.2949687290644L120.06582633829562,-1.031200043354326z" style="fill:rgb(238,238,238); fill-opacity: 0.4"></path><path d="M178.54967020023753,7.159801878111351L178.54967020023753,32.2949687290644M178.54967020023753,32.2949687290644L168.88057061824878,41.499820715050596M170.95091709674227,26.85745555642739L112.46707323480035,18.666453634961712M112.46707323480035,15.726610063399374L112.46707323480035,18.666453634961712M112.46707323480035,18.666453634961712L111.33616209275523,19.74306574176212M110.39672675630686,8.173651942631864L110.39672675630686,33.30881879358492M110.39672675630686,33.30881879358492L168.88057061824878,41.499820715050596M170.95091709674227,23.917611984865054L112.46707323480035,15.726610063399374M112.46707323480035,15.726610063399374L111.33616209275523,16.80322217019978" style="fill:none;stroke:rgb(0,0,0);stroke-width:1;stroke-linecap:round"></path><path d="M112.46707323480034,15.726610063399376L112.46707323480034,18.666453634961712L111.33616209275523,16.803222170199785zM112.46707323480034,18.666453634961712L111.33616209275523,19.74306574176212L111.33616209275523,16.803222170199785z" style="fill:rgb(153,221,255); fill-opacity: 0.4"></path><path d="M111.33616209275523,16.80322217019978L111.33616209275523,19.74306574176212M111.33616209275523,19.74306574176212L169.82000595469717,27.934067663227797M111.33616209275523,16.80322217019978L169.82000595469717,24.99422409166546M252.70485468856754,42.68083290147424L198.20598360663755,35.04794955674094M198.20598360663755,9.912782705787885L198.20598360663755,35.04794955674094M198.20598360663755,35.04794955674094L188.53688402464877,44.252801542727134" style="fill:none;stroke:rgb(0,0,0);stroke-width:1;stroke-linecap:round"></path><path d="M168.88057061824878,41.499820715050596L110.39672675630686,33.30881879358492L178.54967020023756,32.2949687290644z" style="fill:rgb(238,238,238); fill-opacity: 0.4"></path><path d="M178.54967020023753,7.159801878111351L168.88057061824878,16.36465386409754" style="fill:none;stroke:rgb(0,0,0);stroke-width:1;stroke-linecap:round"></path><path d="M170.95091709674227,26.85745555642739L112.46707323480034,18.666453634961712L112.46707323480034,15.726610063399376zM111.33616209275523,19.74306574176212L112.46707323480034,18.666453634961712L170.95091709674227,26.85745555642739z" style="fill:rgb(153,221,255); fill-opacity: 0.4"></path><path d="M168.88057061824878,16.36465386409754L178.54967020023756,7.1598018781113515L120.06582633829562,-1.031200043354326zM168.88057061824878,41.499820715050596L178.54967020023756,32.2949687290644L178.54967020023756,7.1598018781113515zM110.39672675630686,8.173651942631865L168.88057061824878,16.36465386409754L120.06582633829562,-1.031200043354326z" style="fill:rgb(238,238,238); fill-opacity: 0.4"></path><path d="M110.39672675630686,8.173651942631864L168.88057061824878,16.36465386409754" style="fill:none;stroke:rgb(0,0,0);stroke-width:1;stroke-linecap:round"></path><path d="M111.33616209275523,16.803222170199785L169.82000595469717,24.99422409166546L112.46707323480034,15.726610063399376zM111.33616209275523,16.803222170199785L111.33616209275523,19.74306574176212L169.82000595469717,24.99422409166546z" style="fill:rgb(153,221,255); fill-opacity: 0.4"></path><path d="M110.39672675630686,8.173651942631865L110.39672675630686,33.30881879358492L168.88057061824878,16.36465386409754zM252.7048546885676,42.68083290147424L198.20598360663755,35.04794955674094L198.20598360663755,9.912782705787885z" style="fill:rgb(238,238,238); fill-opacity: 0.4"></path><path d="M252.70485468856754,17.545666050521184L198.20598360663755,9.912782705787885M198.20598360663755,9.912782705787885L188.53688402464877,19.117634691774075" style="fill:none;stroke:rgb(0,0,0);stroke-width:1;stroke-linecap:round"></path><path d="M170.95091709674227,23.917611984865054L170.95091709674227,26.85745555642739L112.46707323480034,15.726610063399376zM169.82000595469717,27.934067663227797L111.33616209275523,19.74306574176212L170.95091709674227,26.85745555642739zM169.82000595469717,24.99422409166546L170.95091709674227,23.917611984865054L112.46707323480034,15.726610063399376zM111.33616209275523,19.74306574176212L169.82000595469717,27.934067663227797L169.82000595469717,24.99422409166546z" style="fill:rgb(153,221,255); fill-opacity: 0.4"></path><path d="M110.39672675630686,33.30881879358492L168.88057061824878,41.499820715050596L168.88057061824878,16.36465386409754zM188.53688402464874,44.252801542727134L198.20598360663755,35.04794955674094L252.7048546885676,42.68083290147424zM198.20598360663755,9.912782705787885L198.20598360663755,35.04794955674094L188.53688402464874,19.117634691774075zM168.88057061824878,16.36465386409754L168.88057061824878,41.499820715050596L178.54967020023756,7.1598018781113515z" style="fill:rgb(238,238,238); fill-opacity: 0.4"></path><path d="M170.95091709674227,23.917611984865054L170.95091709674227,26.85745555642739M170.95091709674227,26.85745555642739L169.82000595469717,27.934067663227797M170.95091973045228,23.9176123458094L170.95091973045228,26.857455866263475M170.95091973045228,26.857455866263475L169.82000840865368,27.93406814418677M170.95091973045228,26.857455866263475L190.04177668665076,28.678821085831597M168.88057061824878,16.36465386409754L168.88057061824878,41.499820715050596M170.95091709674227,23.917611984865054L169.82000595469717,24.99422409166546M170.95091973045228,23.9176123458094L169.82000840865368,24.994224623732695M170.95091973045228,23.9176123458094L190.04177668665076,28.678821085831597" style="fill:none;stroke:rgb(0,0,0);stroke-width:1;stroke-linecap:round"></path><path d="M169.82000595469717,27.934067663227797L170.95091709674227,26.85745555642739L170.95091709674227,23.917611984865054z" style="fill:rgb(153,221,255); fill-opacity: 0.4"></path><path d="M170.95091787104468,23.917612093310606L170.95091787104468,26.857455664872944L169.82000672899954,27.93406777167335z" style="fill:rgb(255,187,187); fill-opacity: 0.4"></path><path d="M198.20598360663755,35.04794955674094L188.53688402464874,44.252801542727134L188.53688402464874,19.117634691774075z" style="fill:rgb(238,238,238); fill-opacity: 0.4"></path><path d="M169.82000595469717,24.99422409166546L169.82000595469717,27.934067663227797L170.95091709674227,23.917611984865054z" style="fill:rgb(153,221,255); fill-opacity: 0.4"></path><path d="M170.95091787104468,23.917612093310606L169.82000672899954,27.93406777167335L169.82000672899954,24.99422420011101z" style="fill:rgb(255,187,187); fill-opacity: 0.4"></path><path d="M169.82000595469717,24.99422409166546L169.82000595469717,27.934067663227797M169.82000840865368,27.93406814418677L169.82000840865368,24.994224623732695M169.82000840865368,27.93406814418677L190.04177668665076,28.678821085831597M252.70485468856754,17.545666050521184L252.70485468856754,42.68083290147424M252.70485468856754,42.68083290147424L243.0357551065788,51.88568488746042" style="fill:none;stroke:rgb(0,0,0);stroke-width:1;stroke-linecap:round"></path><path d="M252.7048546885676,17.545666050521184L252.7048546885676,42.68083290147424L198.20598360663755,9.912782705787885z" style="fill:rgb(238,238,238); fill-opacity: 0.4"></path><path d="M170.95091787104468,26.857455664872944L170.95091787104468,23.917612093310606L190.04177500699666,28.67882066220991z" style="fill:rgb(255,187,187); fill-opacity: 0.4"></path><path d="M169.82000840865368,24.994224623732695L190.04177668665076,28.678821085831597" style="fill:none;stroke:rgb(0,0,0);stroke-width:1;stroke-linecap:round"></path><path d="M169.82000672899954,27.93406777167335L170.95091787104468,26.857455664872944L190.04177500699666,28.67882066220991zM170.95091787104468,23.917612093310606L169.82000672899954,24.99422420011101L190.04177500699666,28.67882066220991zM169.82000672899954,24.99422420011101L169.82000672899954,27.93406777167335L190.04177500699666,28.67882066220991z" style="fill:rgb(255,187,187); fill-opacity: 0.4"></path><path d="M188.53688402464877,19.117634691774075L188.53688402464877,44.252801542727134M188.53688402464877,44.252801542727134L243.0357551065788,51.88568488746042M279.05163562502406,75.01471742328106L272.2392767397828,74.0606070051894M272.2392767397828,-0.65668637735091L272.2392767397828,74.0606070051894M272.2392767397828,74.0606070051894L269.6263171673615,76.54810916664266" style="fill:none;stroke:rgb(0,0,0);stroke-width:1;stroke-linecap:round"></path><path d="M243.0357551065788,51.88568488746043L188.53688402464874,44.252801542727134L252.7048546885676,42.68083290147424z" style="fill:rgb(238,238,238); fill-opacity: 0.4"></path><path d="M279.05163562502406,0.29742404074075124L279.05163562502406,75.01471742328106M279.05163562502406,75.01471742328106L276.4386760526028,77.50221958473432M252.70485468856754,17.545666050521184L243.0357551065788,26.750518036507373" style="fill:none;stroke:rgb(0,0,0);stroke-width:1;stroke-linecap:round"></path><path d="M269.6263171673615,76.54810916664266L272.2392767397828,74.0606070051894L279.051635625024,75.01471742328107zM243.0357551065788,51.88568488746043L252.7048546885676,42.68083290147424L252.7048546885676,17.545666050521184zM243.0357551065788,26.750518036507373L252.7048546885676,17.545666050521184L198.20598360663755,9.912782705787885zM188.53688402464874,19.117634691774075L243.0357551065788,26.750518036507373L198.20598360663755,9.912782705787885zM276.4386760526028,77.50221958473432L269.6263171673615,76.54810916664266L279.051635625024,75.01471742328107z" style="fill:rgb(238,238,238); fill-opacity: 0.4"></path><path d="M269.6263171673615,1.8308157841023527L269.6263171673615,76.54810916664266M269.6263171673615,76.54810916664266L276.4386760526028,77.50221958473432M188.53688402464877,19.117634691774075L243.0357551065788,26.750518036507373M276.4386760526028,2.784926202194014L276.4386760526028,77.50221958473432M305.52030719852064,78.72180856846893L298.70794831327936,77.76769815037726M298.70794831327936,3.050404767836957L298.70794831327936,77.76769815037726M298.70794831327936,77.76769815037726L296.09498874085807,80.25520031183054" style="fill:none;stroke:rgb(0,0,0);stroke-width:1;stroke-linecap:round"></path><path d="M188.53688402464874,19.117634691774075L188.53688402464874,44.252801542727134L243.0357551065788,26.750518036507373zM279.051635625024,75.01471742328107L272.2392767397828,74.0606070051894L272.2392767397828,-0.6566863773509093z" style="fill:rgb(238,238,238); fill-opacity: 0.4"></path><path d="M252.25929989130594,35.330379702724706L263.39787709192484,36.890402116231535M305.52030719852064,4.004515185928619L305.52030719852064,78.72180856846893M305.52030719852064,78.72180856846893L302.90734762609935,81.20931072992218" style="fill:none;stroke:rgb(0,0,0);stroke-width:1;stroke-linecap:round"></path><path d="M296.0949887408581,80.25520031183054L298.70794831327936,77.76769815037726L305.5203071985206,78.72180856846893zM188.53688402464874,44.252801542727134L243.0357551065788,51.88568488746043L243.0357551065788,26.750518036507373zM272.2392767397828,74.0606070051894L269.6263171673615,76.54810916664266L269.6263171673615,1.8308157841023533zM276.4386760526028,77.50221958473432L279.051635625024,75.01471742328107L279.051635625024,0.29742404074075635zM243.0357551065788,26.750518036507373L243.0357551065788,51.88568488746043L252.7048546885676,17.545666050521184zM302.90734762609935,81.20931072992218L296.0949887408581,80.25520031183054L305.5203071985206,78.72180856846893z" style="fill:rgb(238,238,238); fill-opacity: 0.4"></path><path d="M296.09498874085807,5.537906929290219L296.09498874085807,80.25520031183054M296.09498874085807,80.25520031183054L302.90734762609935,81.20931072992218" style="fill:none;stroke:rgb(0,0,0);stroke-width:1;stroke-linecap:round"></path><path d="M262.5015767270791,38.50071931104385L263.39787709192484,39.34027175920014L269.94998132758303,37.80806235947084z" style="fill:rgb(0,0,0)"></path><path d="M243.0357551065788,26.750518036507373L243.0357551065788,51.88568488746042" style="fill:none;stroke:rgb(0,0,0);stroke-width:1;stroke-linecap:round"></path><path d="M263.95182115988797,34.38106866272895L262.8439330239617,35.4357631791892L269.94998132758303,37.80806235947084zM262.8439330239617,35.4357631791892L262.5015767270791,38.50071931104385L269.94998132758303,37.80806235947084z" style="fill:rgb(0,0,0)"></path><path d="M269.6263171673615,76.54810916664266L276.4386760526028,77.50221958473432L276.4386760526028,2.784926202194019z" style="fill:rgb(238,238,238); fill-opacity: 0.4"></path><path d="M302.90734762609935,6.492017347381881L302.90734762609935,81.20931072992218" style="fill:none;stroke:rgb(0,0,0);stroke-width:1;stroke-linecap:round"></path><path d="M305.5203071985206,78.72180856846893L298.70794831327936,77.76769815037726L298.70794831327936,3.0504047678369535z" style="fill:rgb(238,238,238); fill-opacity: 0.4"></path><path d="M331.9889787720172,78.91645294319406L325.17661988677594,77.96234252510239M325.17661988677594,10.269942683487548L325.17661988677594,77.96234252510239M325.17661988677594,77.96234252510239L322.56366031435465,80.44984468655566M278.7279714648025,39.037470847912566L289.8665486654215,40.597493261419395" style="fill:none;stroke:rgb(0,0,0);stroke-width:1;stroke-linecap:round"></path><path d="M279.051635625024,0.29742404074075635L279.051635625024,75.01471742328107L272.2392767397828,-0.6566863773509093zM272.2392767397828,-0.6566863773509093L272.2392767397828,74.0606070051894L269.6263171673615,1.8308157841023533z" style="fill:rgb(238,238,238); fill-opacity: 0.4"></path><path d="M331.9889787720172,11.224053101579209L331.9889787720172,78.91645294319406M331.9889787720172,78.91645294319406L329.37601919959593,81.40395510464732" style="fill:none;stroke:rgb(0,0,0);stroke-width:1;stroke-linecap:round"></path><path d="M322.56366031435465,80.44984468655566L325.17661988677594,77.96234252510239L331.98897877201716,78.91645294319406zM298.70794831327936,77.76769815037726L296.0949887408581,80.25520031183054L296.0949887408581,5.537906929290217zM302.90734762609935,81.20931072992218L305.5203071985206,78.72180856846893L305.5203071985206,4.004515185928614z" style="fill:rgb(238,238,238); fill-opacity: 0.4"></path><path d="M288.97024830057575,42.20781045623172L289.8665486654214,43.04736290438801L296.4186529010796,41.51515350465871zM290.42049273338455,38.08815980791681L289.3126045974583,39.14285432437706L296.4186529010796,41.51515350465871z" style="fill:rgb(0,0,0)"></path><path d="M329.37601919959593,81.40395510464732L322.56366031435465,80.44984468655566L331.98897877201716,78.91645294319406zM276.4386760526028,2.784926202194019L276.4386760526028,77.50221958473432L279.051635625024,0.29742404074075635z" style="fill:rgb(238,238,238); fill-opacity: 0.4"></path><path d="M322.56366031435465,12.75744484494081L322.56366031435465,80.44984468655566M322.56366031435465,80.44984468655566L329.37601919959593,81.40395510464732" style="fill:none;stroke:rgb(0,0,0);stroke-width:1;stroke-linecap:round"></path><path d="M269.6263171673615,1.8308157841023533L269.6263171673615,76.54810916664266L276.4386760526028,2.784926202194019z" style="fill:rgb(238,238,238); fill-opacity: 0.4"></path><path d="M289.3126045974583,39.14285432437706L288.97024830057575,42.20781045623172L296.4186529010796,41.51515350465871z" style="fill:rgb(0,0,0)"></path><path d="M296.0949887408581,80.25520031183054L302.90734762609935,81.20931072992218L302.90734762609935,6.492017347381878z" style="fill:rgb(238,238,238); fill-opacity: 0.4"></path><path d="M329.37601919959593,13.711555263032471L329.37601919959593,81.40395510464732M279.05163562502406,0.29742404074075124L272.2392767397828,-0.65668637735091M272.2392767397828,-0.65668637735091L269.6263171673615,1.8308157841023527" style="fill:none;stroke:rgb(0,0,0);stroke-width:1;stroke-linecap:round"></path><path d="M331.98897877201716,78.91645294319406L325.17661988677594,77.96234252510239L325.17661988677594,10.269942683487544z" style="fill:rgb(238,238,238); fill-opacity: 0.4"></path><path d="M305.1966430382991,42.74456199310043L316.335220238918,44.30458440660726" style="fill:none;stroke:rgb(0,0,0);stroke-width:1;stroke-linecap:round"></path><path d="M305.5203071985206,4.004515185928614L305.5203071985206,78.72180856846893L298.70794831327936,3.0504047678369535zM298.70794831327936,3.0504047678369535L298.70794831327936,77.76769815037726L296.0949887408581,5.537906929290217z" style="fill:rgb(238,238,238); fill-opacity: 0.4"></path><path d="M279.05163562502406,0.29742404074075124L276.4386760526028,2.784926202194014" style="fill:none;stroke:rgb(0,0,0);stroke-width:1;stroke-linecap:round"></path><path d="M276.4386760526028,2.784926202194019L279.051635625024,0.29742404074075635L272.2392767397828,-0.6566863773509093zM325.17661988677594,77.96234252510239L322.56366031435465,80.44984468655566L322.56366031435465,12.757444844940807zM329.37601919959593,81.40395510464732L331.98897877201716,78.91645294319406L331.98897877201716,11.224053101579205zM269.6263171673615,1.8308157841023533L276.4386760526028,2.784926202194019L272.2392767397828,-0.6566863773509093z" style="fill:rgb(238,238,238); fill-opacity: 0.4"></path><path d="M315.4389198740723,45.91490160141958L316.335220238918,46.75445404957588L322.8873244745762,45.22224464984657zM316.8891643068811,41.79525095310468L315.78127617095487,42.849945469564936L322.8873244745762,45.22224464984657z" style="fill:rgb(0,0,0)"></path><path d="M269.6263171673615,1.8308157841023527L276.4386760526028,2.784926202194014" style="fill:none;stroke:rgb(0,0,0);stroke-width:1;stroke-linecap:round"></path><path d="M302.90734762609935,6.492017347381878L302.90734762609935,81.20931072992218L305.5203071985206,4.004515185928614zM296.0949887408581,5.537906929290217L296.0949887408581,80.25520031183054L302.90734762609935,6.492017347381878z" style="fill:rgb(238,238,238); fill-opacity: 0.4"></path><path d="M315.78127617095487,42.849945469564936L315.4389198740723,45.91490160141958L322.8873244745762,45.22224464984657z" style="fill:rgb(0,0,0)"></path><path d="M322.56366031435465,80.44984468655566L329.37601919959593,81.40395510464732L329.37601919959593,13.711555263032468z" style="fill:rgb(238,238,238); fill-opacity: 0.4"></path><path d="M305.52030719852064,4.004515185928619L298.70794831327936,3.050404767836957M298.70794831327936,3.050404767836957L296.09498874085807,5.537906929290219" style="fill:none;stroke:rgb(0,0,0);stroke-width:1;stroke-linecap:round"></path><path d="M331.98897877201716,11.224053101579205L331.98897877201716,78.91645294319406L325.17661988677594,10.269942683487544zM325.17661988677594,10.269942683487544L325.17661988677594,77.96234252510239L322.56366031435465,12.757444844940807z" style="fill:rgb(238,238,238); fill-opacity: 0.4"></path><path d="M305.52030719852064,4.004515185928619L302.90734762609935,6.492017347381881" style="fill:none;stroke:rgb(0,0,0);stroke-width:1;stroke-linecap:round"></path><path d="M302.90734762609935,6.492017347381878L305.5203071985206,4.004515185928614L298.70794831327936,3.0504047678369535zM296.0949887408581,5.537906929290217L302.90734762609935,6.492017347381878L298.70794831327936,3.0504047678369535zM329.37601919959593,13.711555263032468L329.37601919959593,81.40395510464732L331.98897877201716,11.224053101579205z" style="fill:rgb(238,238,238); fill-opacity: 0.4"></path><path d="M296.09498874085807,5.537906929290219L302.90734762609935,6.492017347381881" style="fill:none;stroke:rgb(0,0,0);stroke-width:1;stroke-linecap:round"></path><path d="M322.56366031435465,12.757444844940807L322.56366031435465,80.44984468655566L329.37601919959593,13.711555263032468z" style="fill:rgb(238,238,238); fill-opacity: 0.4"></path><path d="M331.9889787720172,11.224053101579209L325.17661988677594,10.269942683487548M325.17661988677594,10.269942683487548L322.56366031435465,12.75744484494081M331.9889787720172,11.224053101579209L329.37601919959593,13.711555263032471" style="fill:none;stroke:rgb(0,0,0);stroke-width:1;stroke-linecap:round"></path><path d="M329.37601919959593,13.711555263032468L331.98897877201716,11.224053101579205L325.17661988677594,10.269942683487544zM322.56366031435465,12.757444844940807L329.37601919959593,13.711555263032468L325.17661988677594,10.269942683487544z" style="fill:rgb(238,238,238); fill-opacity: 0.4"></path><path d="M322.56366031435465,12.75744484494081L329.37601919959593,13.711555263032471" style="fill:none;stroke:rgb(0,0,0);stroke-width:1;stroke-linecap:round"></path></svg>